<svg xmlns="http://www.w3.org/2000/svg" viewBox="0 0 62.1 62.1"><defs><style>.cls-1{fill:#fff;}.cls-2{fill:#ea4335;}.cls-3{fill:#fbbc05;}.cls-4{fill:#34a853;}.cls-5{fill:#4285f4;}</style></defs><g id="Layer_2" data-name="Layer 2"><g id="favicon"><circle class="cls-1" cx="31.05" cy="31.05" r="31.05"/><path class="cls-2" d="M11.79,21.08a22.36,22.36,0,0,1,20-12.35,19.74,19.74,0,0,1,14.49,6.14L40,21a12.85,12.85,0,0,0-8.24-3C26,18.07,21,22.51,19.25,27.63"/><path class="cls-3" d="M19.29,34.55l-1,.89L11.83,41.1a22.16,22.16,0,0,1-1.95-5.66,22.69,22.69,0,0,1-.43-4.39,22.36,22.36,0,0,1,2.34-10l6.61,5.8.85.75a13,13,0,0,0,0,6.92Z"/><path class="cls-4" d="M19.29,34.55c1.81,5,6.86,9.4,12.45,9.4a12.88,12.88,0,0,0,7-2l7.36,5.92a20.28,20.28,0,0,1-14.29,5.55,22.33,22.33,0,0,1-20-12.28"/><path class="cls-5" d="M52.65,31.47a24.55,24.55,0,0,1-.31,4,21.71,21.71,0,0,1-6.27,12.39l-7.36-5.92a13,13,0,0,0,5.18-6.47H31.57V26.88H52.25A26.65,26.65,0,0,1,52.65,31.47Z"/></g></g></svg>