<svg xmlns="http://www.w3.org/2000/svg" viewBox="0 0 656.54 215.98"><defs><style>.cls-1{isolation:isolate;}.cls-2{fill:#5081eb;}.cls-3{fill:#5383ec;}.cls-4{fill:#d85140;}.cls-5{fill:#f1bf42;}.cls-6{fill:#58a65c;}.cls-7,.cls-8,.cls-9{fill:#0074ff;mix-blend-mode:saturation;}.cls-7{opacity:0.63;}.cls-8{opacity:0.45;}.cls-9{opacity:0.2;}</style></defs><g class="cls-1"><g id="Layer_2" data-name="Layer 2"><g id="logo"><path class="cls-2" d="M509.59,64.41c0-.42-.07-.83-.11-1.25H487v9l-1.51-1.2a60.45,60.45,0,0,0-6-5c-10.71-6.77-22.29-7.77-34.28-4.43-26,7.26-42.77,33.94-38.39,60.84,4,24.86,24.55,43.41,47.64,45,12,.85,22.67-2.35,31.17-11.32a9,9,0,0,1,1.31-.88c0,4.35.23,8.39-.05,12.4-.44,6.46-2.13,12.62-6.4,17.68-7.22,8.55-16.82,10.53-27.28,8.86-9.5-1.51-16-7.43-20.63-15.62-.52-.94-1-1.9-1.53-2.94l-20.39,8.48a3.42,3.42,0,0,0,.1.63c7,15.12,18.25,25.3,34.5,29.59,3.24.85,6.63,1.14,10,1.69h6.54c3.07-.44,6.17-.71,9.2-1.33C484,212,494.49,205.4,501.45,193.8c5.78-9.62,8-20.24,8.06-31.27C509.67,129.82,509.58,97.12,509.59,64.41Zm-28.07,71.43a27.93,27.93,0,0,1-39.85,3.94c-15.89-13-15.61-39.92.53-52.59,15.24-12,36.31-6.15,43.77,12.09a35.12,35.12,0,0,1,1.94,6.39c.53,2.66.72,5.38,1.06,8.08C488.73,121.91,486.66,129.4,481.52,135.84Z"/><path class="cls-3" d="M152.67,132.19c-10.92,17.89-27.08,29-47.64,33.34-17.77,3.74-35.34,2.81-52.14-4.47-27.67-12-45.34-32.61-51.27-62.31C-2.83,76.48,2,55.7,14.9,37.06S45.44,6.48,67.63,2c27.81-5.64,52.67.69,73.8,20.1.28.26.56.52.83.79a.57.57,0,0,1,.11.19L126.26,39.11l-1.33-1.17c-14.49-12.66-31.33-17.12-50.18-14-24.92,4.05-45,24-49.06,50.58a60.81,60.81,0,0,0,35.1,65.05c13,5.81,26.45,6.49,40.18,3.33a52.18,52.18,0,0,0,29.1-18c5.18-6.24,7.7-13.7,9.17-21.56.22-1.17.38-2.36.6-3.71H85.27V76.72h2.09q36.35,0,72.68,0c1.77,0,2.41.4,2.62,2.24C164.86,97.73,162.65,115.84,152.67,132.19Z"/><path class="cls-4" d="M226.14,59.7c-30.64.39-53.92,24.2-53.5,54.72.43,30.36,24.43,53.59,54.92,53.14s53.8-24.37,53.35-54.57C280.46,82.47,256.65,59.32,226.14,59.7Zm22.76,76.58c-15.08,17.06-42.11,11.62-50.26-9.91A38.59,38.59,0,0,1,196.33,113c.16-10.42,4-20,13.52-26.7C226.31,74.78,249,82.53,255.26,102,259.28,114.39,257.75,126.26,248.9,136.28Z"/><path class="cls-4" d="M226.14,59.7c-30.64.39-53.92,24.2-53.5,54.72.43,30.36,24.43,53.59,54.92,53.14s53.8-24.37,53.35-54.57C280.46,82.47,256.65,59.32,226.14,59.7Zm22.76,76.58c-15.08,17.06-42.11,11.62-50.26-9.91A38.59,38.59,0,0,1,196.33,113c.16-10.42,4-20,13.52-26.7C226.31,74.78,249,82.53,255.26,102,259.28,114.39,257.75,126.26,248.9,136.28Z"/><path class="cls-4" d="M226.14,59.7c-30.64.39-53.92,24.2-53.5,54.72.43,30.36,24.43,53.59,54.92,53.14s53.8-24.37,53.35-54.57C280.46,82.47,256.65,59.32,226.14,59.7Zm22.76,76.58c-15.08,17.06-42.11,11.62-50.26-9.91A38.59,38.59,0,0,1,196.33,113c.16-10.42,4-20,13.52-26.7C226.31,74.78,249,82.53,255.26,102,259.28,114.39,257.75,126.26,248.9,136.28Z"/><path class="cls-4" d="M226.14,59.7c-30.64.39-53.92,24.2-53.5,54.72.43,30.36,24.43,53.59,54.92,53.14s53.8-24.37,53.35-54.57C280.46,82.47,256.65,59.32,226.14,59.7Zm22.76,76.58c-15.08,17.06-42.11,11.62-50.26-9.91A38.59,38.59,0,0,1,196.33,113c.16-10.42,4-20,13.52-26.7C226.31,74.78,249,82.53,255.26,102,259.28,114.39,257.75,126.26,248.9,136.28Z"/><path class="cls-5" d="M343.54,59.7c-30.57,0-54.08,23.47-54.09,53.94,0,30.32,23.52,53.85,54,53.93s54.27-23.5,54.24-54S374.09,59.68,343.54,59.7Zm12.88,83.61c-15.63,7.87-34.66.12-40.88-16.76-4.5-12.21-3.3-24,4.93-34.41,7-8.91,16.66-12.58,27.88-10.72,11.84,2,19.68,9.14,23.62,20.35,1.32,3.75,1.7,7.82,2.19,10.18C373.54,126.7,368.52,137.23,356.42,143.31Z"/><path class="cls-4" d="M609.79,146.32c-11.58-.14-23-7.41-25.48-16.42L656.54,100c-2.64-5.49-4.77-11.08-7.86-16.09C638.33,67.13,623.43,58.36,603.32,60c-15.47,1.22-27.81,8.34-36.79,21-7.55,10.63-10.37,22.69-9.76,35.56.62,13,5.11,24.6,14.06,34.18,21.77,23.31,59.6,22.41,80.33-1.84,1.4-1.63,2.67-3.38,4.07-5.16L636.8,131.4C630.26,140.94,621.58,146.46,609.79,146.32ZM581,103.63c2.75-13.43,15.35-23.56,28.69-23C616.05,80.88,621.73,83,626,88a39.77,39.77,0,0,1,2.58,3.89L580,112.1C580.31,109,580.43,106.28,581,103.63Z"/><rect class="cls-6" x="523.75" y="6.34" width="22.84" height="157.84"/><path class="cls-7" d="M162.66,78.92c2.2,18.81,0,36.92-10,53.27-10.92,17.89-27.08,29-47.64,33.34-17.77,3.74-35.34,2.81-52.14-4.47-27.67-12-45.34-32.61-51.27-62.31C-2.83,76.48,2,55.7,14.9,37.06S45.44,6.48,67.63,2c27.81-5.64,52.67.69,73.8,20.1.28.26.56.52.83.79a.57.57,0,0,1,.11.19L126.26,39.11l-1.33-1.17c-14.49-12.66-31.33-17.12-50.18-14-24.92,4.05-45,24-49.06,50.58a60.81,60.81,0,0,0,35.1,65.05c13,5.81,26.45,6.49,40.18,3.33a52.18,52.18,0,0,0,29.1-18c5.18-6.24,7.7-13.7,9.17-21.56.22-1.17.38-2.36.6-3.71H85.27V76.72h2.09q36.35,0,72.68,0C161.81,76.67,162.45,77.08,162.66,78.92Z"/><path class="cls-8" d="M226.14,59.7c-30.64.39-53.92,24.2-53.5,54.72.43,30.36,24.43,53.59,54.92,53.14s53.8-24.37,53.35-54.57C280.46,82.47,256.65,59.32,226.14,59.7Zm22.76,76.58c-15.08,17.06-42.11,11.62-50.26-9.91A38.59,38.59,0,0,1,196.33,113c.16-10.42,4-20,13.52-26.7C226.31,74.78,249,82.53,255.26,102,259.28,114.39,257.75,126.26,248.9,136.28Z"/><path class="cls-7" d="M343.54,59.7c-30.57,0-54.08,23.47-54.09,53.94,0,30.32,23.52,53.85,54,53.93s54.27-23.5,54.24-54S374.09,59.68,343.54,59.7Zm12.88,83.61c-15.63,7.87-34.66.12-40.88-16.76-4.5-12.21-3.3-24,4.93-34.41,7-8.91,16.66-12.58,27.88-10.72,11.84,2,19.68,9.14,23.62,20.35,1.32,3.75,1.7,7.82,2.19,10.18C373.54,126.7,368.52,137.23,356.42,143.31Z"/><path class="cls-7" d="M509.59,64.41c0-.42-.07-.83-.11-1.25H487v9l-1.51-1.2a60.45,60.45,0,0,0-6-5c-10.71-6.77-22.29-7.77-34.28-4.43-26,7.26-42.77,33.94-38.39,60.84,4,24.86,24.55,43.41,47.64,45,12,.85,22.67-2.35,31.17-11.32a9,9,0,0,1,1.31-.88c0,4.35.23,8.39-.05,12.4-.44,6.46-2.13,12.62-6.4,17.68-7.22,8.55-16.82,10.53-27.28,8.86-9.5-1.51-16-7.43-20.63-15.62-.52-.94-1-1.9-1.53-2.94l-20.39,8.48a3.42,3.42,0,0,0,.1.63c7,15.12,18.25,25.3,34.5,29.59,3.24.85,6.63,1.14,10,1.69h6.54c3.07-.44,6.17-.71,9.2-1.33C484,212,494.49,205.4,501.45,193.8c5.78-9.62,8-20.24,8.06-31.27C509.67,129.82,509.58,97.12,509.59,64.41Zm-28.07,71.43a27.93,27.93,0,0,1-39.85,3.94c-15.89-13-15.61-39.92.53-52.59,15.24-12,36.31-6.15,43.77,12.09a35.12,35.12,0,0,1,1.94,6.39c.53,2.66.72,5.38,1.06,8.08C488.73,121.91,486.66,129.4,481.52,135.84Z"/><rect class="cls-9" x="523.75" y="6.34" width="22.84" height="157.84"/><path class="cls-8" d="M609.79,146.32c-11.58-.14-23-7.41-25.48-16.42L656.54,100c-2.64-5.49-4.77-11.08-7.86-16.09C638.33,67.13,623.43,58.36,603.32,60c-15.47,1.22-27.81,8.34-36.79,21-7.55,10.63-10.37,22.69-9.76,35.56.62,13,5.11,24.6,14.06,34.18,21.77,23.31,59.6,22.41,80.33-1.84,1.4-1.63,2.67-3.38,4.07-5.16L636.8,131.4C630.26,140.94,621.58,146.46,609.79,146.32ZM581,103.63c2.75-13.43,15.35-23.56,28.69-23C616.05,80.88,621.73,83,626,88a39.77,39.77,0,0,1,2.58,3.89L580,112.1C580.31,109,580.43,106.28,581,103.63Z"/></g></g></g></svg>