<svg xmlns="http://www.w3.org/2000/svg" viewBox="0 0 42.61 59.93"><defs><style>.cls-1{fill:#d95140;}.cls-2{fill:#eab63d;}.cls-3{fill:#58a55c;}.cls-4{fill:#5186ec;}</style></defs><g id="Layer_2" data-name="Layer 2"><g id="Microphone_icon" data-name="Microphone icon"><path class="cls-1" d="M42.61,29.63a21.17,21.17,0,0,1-18.2,20.9,20.77,20.77,0,0,1-3,.21A21.19,21.19,0,0,1,6.55,44.63L11,40.24A14.93,14.93,0,0,0,36.37,29.63Z"/><path class="cls-2" d="M10.37,40.08,5.78,44.32A21.14,21.14,0,0,1,0,29.11l6.24.21A14.83,14.83,0,0,0,10.37,40.08Z"/><path class="cls-3" d="M24.41,50.53v9.4H18.46v-9.4a21,21,0,0,0,3,.21A20.77,20.77,0,0,0,24.41,50.53Z"/><path class="cls-4" d="M30.75,9.16,30,30.24a8.86,8.86,0,0,1-17.7-.61l.73-21.09a8.86,8.86,0,0,1,17.7.62Z"/></g></g></svg>