<svg xmlns="http://www.w3.org/2000/svg" viewBox="0 0 43.32 43.51"><defs><style>.cls-1{fill:#9ba0a6;}</style></defs><g id="Layer_2" data-name="Layer 2"><g id="Search_icon" data-name="Search icon"><path class="cls-1" d="M43.13,39.58,31.45,27.9a.27.27,0,0,0-.19-.08l-2.23,0-.7-.7A16.24,16.24,0,0,0,15.48,0,16.24,16.24,0,1,0,27,28.41l.7.7-.08,2.33a.28.28,0,0,0,.08.2L39.39,43.32a.65.65,0,0,0,.93,0l2.81-2.81A.65.65,0,0,0,43.13,39.58ZM16.24,27.18A10.94,10.94,0,1,1,27.18,16.24,10.94,10.94,0,0,1,16.24,27.18Z"/></g></g></svg>